<?xml version="1.0" encoding="UTF-8" standalone="no"?>
<svg
   height="16"
   width="14"
   viewBox="0 0 448 512"
   version="1.1"
   id="svg1"
   sodipodi:docname="substack.svg"
   inkscape:version="1.3.2 (091e20e, 2023-11-25)"
   xmlns:inkscape="http://www.inkscape.org/namespaces/inkscape"
   xmlns:sodipodi="http://sodipodi.sourceforge.net/DTD/sodipodi-0.dtd"
   xmlns="http://www.w3.org/2000/svg"
   xmlns:svg="http://www.w3.org/2000/svg">
  <defs
     id="defs1" />
  <sodipodi:namedview
     id="namedview1"
     pagecolor="#ffffff"
     bordercolor="#000000"
     borderopacity="0.25"
     inkscape:showpageshadow="2"
     inkscape:pageopacity="0.0"
     inkscape:pagecheckerboard="0"
     inkscape:deskcolor="#d1d1d1"
     inkscape:zoom="14.75"
     inkscape:cx="6.9830508"
     inkscape:cy="8"
     inkscape:window-width="1352"
     inkscape:window-height="653"
     inkscape:window-x="0"
     inkscape:window-y="179"
     inkscape:window-maximized="0"
     inkscape:current-layer="layer1" />
  <!--!Font Awesome Free 6.5.1 by @fontawesome - https://fontawesome.com License - https://fontawesome.com/license/free Copyright 2023 Fonticons, Inc.-->
  <rect
     style="display:inline;fill:#1e3050;fill-opacity:1;stroke-width:32"
     id="rect1"
     width="360.13559"
     height="290.71185"
     x="52.067795"
     y="106.30508" />
  <path
     opacity="1"
     fill="#1E3050"
     d="M64 32C28.7 32 0 60.7 0 96V416c0 35.3 28.7 64 64 64H384c35.3 0 64-28.7 64-64V96c0-35.3-28.7-64-64-64H64zM218 271.7L64.2 172.4C66 156.4 79.5 144 96 144H352c16.5 0 30 12.4 31.8 28.4L230 271.7c-1.8 1.2-3.9 1.8-6 1.8s-4.2-.6-6-1.8zm29.4 26.9L384 210.4V336c0 17.7-14.3 32-32 32H96c-17.7 0-32-14.3-32-32V210.4l136.6 88.2c7 4.5 15.1 6.9 23.4 6.9s16.4-2.4 23.4-6.9z"
     id="path1" />
  <g
     inkscape:groupmode="layer"
     id="layer1"
     inkscape:label="logo">
    <path
       style="fill:#f9f9f9;stroke:none;stroke-width:0.483932"
       d="M 95.457628,114.09519 V 148.4544 H 351.45763 V 114.09519 H 95.457628 m 0,65.33089 v 34.84304 H 351.45763 V 179.42608 H 95.457628 m 0,65.3308 v 160.18144 c 10.462962,-3.01968 20.974642,-11.21416 30.487682,-16.52144 l 63.87904,-35.67544 c 7.90888,-4.41248 15.8396,-8.794 23.71264,-13.26992 2.5736,-1.46288 6.92656,-5.104 9.95744,-5.04888 2.9868,0.056 7.32432,3.72192 9.88384,5.1844 7.37408,4.21456 14.81552,8.34592 22.2608,12.43464 22.5092,12.362 44.75792,25.19688 67.26656,37.55888 8.70352,4.77984 18.87192,13.1228 28.552,15.33776 V 244.75688 Z"
       id="path1-5" />
  </g>
</svg>
